# xmcd
#
# Track frame offsets: 
#        150
#        14525
#        34693
#        48827
#        64248
#        79571
#        92494
#        105939
#        118067
#        132863
#        146308
#        158105
#        171669
#        185805
#        200067
#        213282
#        226178
#        240577
#        256190
#        270289
#        282683
#        297908
#        309640
#        323433
#        336613
#
# Disc length: 4669 seconds
#
# Revision: 0
# Processed by: cddbd v1.5.1PL2 Copyright (c) Steve Scherf et al.
# Submitted via: ExactAudioCopy v0.95b1
#
DISCID=69123b19
DTITLE=Various Artist - Road To Nashville -History Of Country Music 1926-53 C
DTITLE=D1
DYEAR=1900
DGENRE=Country
TTITLE0=Prisoner's Song - Vernon Dalhardt
TTITLE1=Pretty Polly - B. F. Shelton
TTITLE2=Columbus Stockade - Darby and Tarlton
TTITLE3=Bringing In The Sheaves - Mountain Singers Male Quartet
TTITLE4=Worried Blues - Frank Hutchison
TTITLE5=Are You Washed In The Blood - Da Costa Woltz's Southern Broadc
TTITLE5=asters 
TTITLE6=Brilliancy Medley - Eck Robertson
TTITLE7=Tom Sherman's Barroom - Dick Devall
TTITLE8=Texas Ranger - Cartwright Brothers
TTITLE9=Powder River Let Er 'Buck - Powder River Jack Lee
TTITLE10=Bucking Bronco - Girls Of The Golden West
TTITLE11=Dixie Darling - Carter Family
TTITLE12=Christine Leroy - Blue Ridge Mountain Singers
TTITLE13=Charles Giteau - Kelly Harrell
TTITLE14=Don't Let Your Deal Go Down Blues - Charlie Poole
TTITLE15=Ida Red - Gid Tanner and The Skillet Lickers
TTITLE16=Well I Swan - Riley Puckett
TTITLE17=Blue Yodel No. 1 (T For Texas) - Jimmie Rodgers
TTITLE18=Penitentiary Blues - Jimmie Davis
TTITLE19=Brakeman's Reply - Cliff Carlisle
TTITLE20=Do Right Daddy - Gene Autry
TTITLE21=Since That Black Cat Crossed My Path - Ernest Tubb
TTITLE22=Hobo's Last Ride - Hank The Yodelin Ranger Snow, The
TTITLE23=Montana Plains - Patsy Montana (As Rubye Blevins)
TTITLE24=Farm Relief - Dave Macon
EXTD=
EXTT0=
EXTT1=
EXTT2=
EXTT3=
EXTT4=
EXTT5=
EXTT6=
EXTT7=
EXTT8=
EXTT9=
EXTT10=
EXTT11=
EXTT12=
EXTT13=
EXTT14=
EXTT15=
EXTT16=
EXTT17=
EXTT18=
EXTT19=
EXTT20=
EXTT21=
EXTT22=
EXTT23=
EXTT24=
PLAYORDER=
